<svg width="29" height="23" viewBox="0 0 29 23" fill="none" xmlns="http://www.w3.org/2000/svg">
<g clip-path="url(#clip0_149_2)">
<path fill-rule="evenodd" clip-rule="evenodd" d="M6.31944 0.0491943C4.66402 0.0491943 3.43998 1.49286 3.49557 3.05694C3.54752 4.56201 3.47986 6.50898 2.98807 8.09713C2.49265 9.6889 1.6589 10.6979 0.295898 10.8279V12.2909C1.6589 12.4197 2.49386 13.4287 2.98686 15.0217C3.47986 16.6098 3.54752 18.5568 3.49436 20.0607C3.43998 21.6259 4.66402 23.0696 6.31944 23.0696H23.2748C24.9302 23.0696 26.1542 21.6259 26.0986 20.0607C26.0467 18.5568 26.1144 16.6098 26.6061 15.0217C27.1004 13.4287 27.9329 12.4209 29.2959 12.2909V10.8279C27.9329 10.6979 27.1004 9.6889 26.6061 8.09713C26.1144 6.50777 26.0467 4.56081 26.0986 3.05694C26.1542 1.49166 24.929 0.0491943 23.2748 0.0491943H6.31944ZM19.9555 14.2198C19.9555 16.375 18.3424 17.6814 15.6659 17.6814H11.1093C10.9788 17.6814 10.8538 17.6298 10.7615 17.5379C10.6693 17.446 10.6175 17.3214 10.6175 17.1914V5.92621C10.6178 5.79645 10.6698 5.67211 10.762 5.58047C10.8541 5.48883 10.9791 5.43736 11.1093 5.43736H15.6405C17.8723 5.43736 19.338 6.64142 19.338 8.49206C19.338 9.79004 18.352 10.952 17.0966 11.1566V11.2241C18.8064 11.4107 19.9555 12.5907 19.9555 14.2198ZM15.1705 6.9894H12.5726V10.6473H14.7609C16.4525 10.6473 17.3854 9.96824 17.3854 8.75455C17.3854 7.61791 16.583 6.9894 15.1705 6.9894ZM12.5726 12.0982V16.1282H15.2671C17.0277 16.1282 17.9617 15.4238 17.9617 14.1006C17.9617 12.7761 17.0023 12.0982 15.1536 12.0982H12.5726Z" fill="#8AAD87"/>
</g>
<defs>
<clipPath id="clip0_149_2">
<rect width="29" height="23" fill="white"/>
</clipPath>
</defs>
</svg>
