<svg width="25" height="25" viewBox="0 0 25 25" fill="none" xmlns="http://www.w3.org/2000/svg">
<g clip-path="url(#clip0_136_115)">
<path d="M0 0V21C0 22.0609 0.421427 23.0783 1.17157 23.8284C1.92172 24.5786 2.93913 25 4 25H21C22.0609 25 23.0783 24.5786 23.8284 23.8284C24.5786 23.0783 25 22.0609 25 21V4C25 2.93913 24.5786 1.92172 23.8284 1.17157C23.0783 0.421427 22.0609 0 21 0L0 0ZM14.85 13.625C16.475 13.625 17.225 14.75 17.25 16.375H15.575C15.6 16.075 15.525 15.75 15.425 15.5C15.325 15.3 15.125 15.225 14.85 15.225C14.375 15.225 14.125 15.5 14.125 16.1C14.1 16.7 14.425 17.025 14.925 17.225C15.675 17.525 16.6 18 16.925 18.575C17.225 19.025 17.375 19.6 17.375 20.3C17.375 21.975 16.425 23 14.775 23C13.05 23 12.275 21.925 12.25 20.2H14C14 21.025 14.275 21.425 14.825 21.425C15.1 21.425 15.3 21.35 15.4 21.175C15.6 20.85 15.65 19.95 15.35 19.6C15.025 19.175 14.4 18.975 13.975 18.75C13.4 18.475 12.975 18.15 12.7 17.775C12.45 17.4 12.325 16.85 12.325 16.175C12.325 14.675 13.3 13.6 14.85 13.625ZM20.475 13.625C22.125 13.625 22.875 14.75 22.9 16.375H21.225C21.225 16.075 21.175 15.75 21.05 15.5C20.95 15.3 20.775 15.225 20.5 15.225C20 15.225 19.75 15.5 19.75 16.1C19.75 16.7 20.05 17.025 20.575 17.225C21.3 17.525 22.25 18 22.575 18.575C22.85 19.025 23 19.6 23 20.3C23.025 21.975 22.075 23 20.425 23C18.675 23 17.9 21.9 17.875 20.2H19.625C19.625 20.975 19.9 21.425 20.45 21.425C20.725 21.425 20.925 21.35 21.025 21.175C21.25 20.85 21.3 19.95 20.975 19.6C20.675 19.175 20.05 18.975 19.6 18.75C19.025 18.475 18.6 18.15 18.35 17.775C18.1 17.4 17.975 16.85 17.975 16.175C17.95 14.675 18.925 13.6 20.475 13.625ZM8.98437 13.6437C9.725 13.6375 10.4625 13.85 10.9 14.3C11.35 14.75 11.6 15.475 11.575 16.375H9.725C9.75 15.9 9.625 15.55 9.275 15.375C8.95 15.225 8.475 15.325 8.35 15.625C8.225 15.9 8.15 16.225 8.175 16.525V20.175C8.175 20.95 8.45 21.35 8.975 21.35C9.08605 21.3549 9.1966 21.3324 9.29688 21.2844C9.39716 21.2364 9.48409 21.1645 9.55 21.075C9.725 20.825 9.75 20.5 9.725 20.2H11.575C11.675 21.9 10.55 23.025 8.9 23C7.3 23 6.3 22.1 6.325 20.425V16.225C6.325 15.375 6.575 14.725 7.05 14.3C7.5 13.875 8.24375 13.65 8.98437 13.6437Z" fill="#8AAD87"/>
</g>
<defs>
<clipPath id="clip0_136_115">
<rect width="25" height="25" fill="white"/>
</clipPath>
</defs>
</svg>
