<svg width="25" height="25" viewBox="0 0 25 25" fill="none" xmlns="http://www.w3.org/2000/svg">
<path d="M9.02806 9.02817C8.10712 9.02817 7.22391 8.66233 6.57271 8.01112C5.92151 7.35992 5.55566 6.47671 5.55566 5.55577C5.55566 4.63483 5.92151 3.75162 6.57271 3.10042C7.22391 2.44921 8.10712 2.08337 9.02806 2.08337H12.4999V9.02817M9.02806 9.02817H12.4999M9.02806 9.02817C8.10726 9.02817 7.22418 9.39395 6.57307 10.0451C5.92197 10.6962 5.55619 11.5792 5.55619 12.5C5.55619 13.4208 5.92197 14.3039 6.57307 14.955C7.22418 15.6061 8.10726 15.9719 9.02806 15.9719H12.4999V9.02817" stroke="#8AAD87" stroke-width="1.5"/>
<path d="M19.4447 12.5C19.4447 13.4209 19.0789 14.3041 18.4277 14.9553C17.7765 15.6065 16.8932 15.9724 15.9723 15.9724C15.0514 15.9724 14.1681 15.6065 13.5169 14.9553C12.8657 14.3041 12.4999 13.4209 12.4999 12.5C12.4999 11.579 12.8657 10.6958 13.5169 10.0446C14.1681 9.39343 15.0514 9.02759 15.9723 9.02759C16.8932 9.02759 17.7765 9.39343 18.4277 10.0446C19.0789 10.6958 19.4447 11.579 19.4447 12.5ZM9.02803 15.9729H12.4999V19.4448C12.4997 20.1314 12.2959 20.8026 11.9143 21.3734C11.5327 21.9442 10.9904 22.389 10.3559 22.6516C9.72152 22.9142 9.02347 22.9829 8.35006 22.8488C7.67665 22.7147 7.05812 22.3839 6.57267 21.8984C6.08723 21.4128 5.75667 20.7941 5.62279 20.1207C5.48891 19.4472 5.55773 18.7492 5.82053 18.1149C6.08334 17.4805 6.52834 16.9384 7.09927 16.5569C7.67019 16.1755 8.3414 15.9729 9.02803 15.9729Z" stroke="#8AAD87" stroke-width="1.5"/>
<path d="M12.5 2.08337H15.9719C16.8928 2.08337 17.776 2.44921 18.4272 3.10042C19.0784 3.75162 19.4443 4.63483 19.4443 5.55577C19.4443 6.47671 19.0784 7.35992 18.4272 8.01112C17.776 8.66232 16.8928 9.02817 15.9719 9.02817H12.5V2.08337Z" stroke="#8AAD87" stroke-width="1.5"/>
</svg>
