<svg width="50" height="50" viewBox="0 0 50 50" fill="none" xmlns="http://www.w3.org/2000/svg">
<g clip-path="url(#clip0_27_67)">
<path d="M47.2 2.7475C45.3667 0.914169 43.1608 -0.0016644 40.5825 2.27066e-06H9.365C6.785 2.27066e-06 4.57917 0.915836 2.7475 2.7475C0.914169 4.58084 -0.0016644 6.78667 2.27066e-06 9.365V40.5825C2.27066e-06 43.1625 0.915836 45.3683 2.7475 47.2C4.58084 49.0333 6.78667 49.9492 9.365 49.9475H16.65C17.125 49.9475 17.4825 49.9308 17.7225 49.8975C18.002 49.8423 18.2543 49.6932 18.4375 49.475C18.6758 49.225 18.795 48.8625 18.795 48.3875L18.7775 46.175C18.7675 44.765 18.7625 43.6483 18.7625 42.825L18.0125 42.955C17.5375 43.0417 16.9367 43.08 16.21 43.07C15.4518 43.0555 14.6959 42.9794 13.95 42.8425C13.1552 42.6984 12.4073 42.3638 11.77 41.8675C11.1011 41.3617 10.6023 40.664 10.34 39.8675L10.015 39.1175C9.74002 38.5264 9.39595 37.9701 8.99 37.46C8.52334 36.8533 8.05167 36.4417 7.575 36.225L7.35 36.0625C7.19376 35.9493 7.05115 35.8185 6.925 35.6725C6.80451 35.5369 6.70583 35.3834 6.6325 35.2175C6.5675 35.0642 6.62167 34.9392 6.795 34.8425C6.96834 34.7425 7.28334 34.6933 7.74 34.695L8.39 34.795C8.82334 34.88 9.35917 35.1392 9.9975 35.5725C10.6427 36.0123 11.1816 36.5905 11.575 37.265C12.075 38.1517 12.6767 38.8292 13.38 39.2975C14.085 39.7642 14.795 39.9975 15.51 39.9975C16.225 39.9975 16.8433 39.9433 17.365 39.835C17.8702 39.7303 18.3612 39.5658 18.8275 39.345C19.0225 37.8933 19.5533 36.7767 20.42 35.995C19.2961 35.8839 18.1821 35.6884 17.0875 35.41C16.0194 35.117 14.9922 34.6911 14.03 34.1425C13.0231 33.5943 12.1338 32.8536 11.4125 31.9625C10.7192 31.0958 10.15 29.9583 9.705 28.55C9.26167 27.14 9.04 25.5133 9.04 23.67C9.04 21.0483 9.89584 18.815 11.6075 16.97C10.8075 14.9983 10.8833 12.7883 11.835 10.34C12.465 10.1433 13.3975 10.2892 14.6325 10.7775C15.8675 11.2658 16.7725 11.6825 17.3475 12.0275C17.9225 12.3775 18.3833 12.6708 18.73 12.9075C20.7622 12.3409 22.8628 12.0565 24.9725 12.0625C27.1192 12.0625 29.2008 12.3442 31.2175 12.9075L32.4525 12.1275C33.4025 11.5572 34.4045 11.0784 35.445 10.6975C36.5933 10.2642 37.4717 10.145 38.08 10.34C39.055 12.79 39.1408 15.0008 38.3375 16.9725C40.0508 18.8142 40.9075 21.0475 40.9075 23.6725C40.9075 25.5158 40.685 27.1467 40.24 28.565C39.7967 29.985 39.2225 31.1233 38.5175 31.98C37.7815 32.8576 36.8888 33.5909 35.885 34.1425C34.835 34.7275 33.8158 35.15 32.8275 35.41C31.733 35.6892 30.619 35.8856 29.495 35.9975C30.62 36.9725 31.1833 38.5108 31.185 40.6125V48.3875C31.185 48.7542 31.2392 49.0517 31.3475 49.28C31.3981 49.3896 31.4702 49.4879 31.5595 49.5691C31.6488 49.6503 31.7536 49.7126 31.8675 49.7525C32.1058 49.8392 32.3175 49.8925 32.5025 49.9125C32.6875 49.9358 32.9525 49.9467 33.2975 49.945H40.5825C43.1625 49.945 45.3683 49.0292 47.2 47.1975C49.0317 45.3658 49.9475 43.16 49.9475 40.58V9.365C49.9475 6.785 49.0333 4.57917 47.2 2.7475Z" fill="#8AAD87"/>
</g>
<defs>
<clipPath id="clip0_27_67">
<rect width="50" height="50" fill="white"/>
</clipPath>
</defs>
</svg>
