<svg width="21" height="25" viewBox="0 0 21 25" fill="none" xmlns="http://www.w3.org/2000/svg">
<mask id="mask0_136_123" style="mask-type:luminance" maskUnits="userSpaceOnUse" x="0" y="0" width="21" height="25">
<path d="M19.0167 1H2.21688C2.04748 1.00002 1.87994 1.03541 1.725 1.10389C1.57006 1.17238 1.43112 1.27246 1.31708 1.39773C1.20304 1.523 1.1164 1.6707 1.06272 1.83137C1.00904 1.99205 0.989492 2.16216 1.00533 2.33082L2.64102 19.7745C2.66083 19.9868 2.73607 20.1901 2.8592 20.3642C2.98234 20.5383 3.14904 20.677 3.34263 20.7663L10.1069 23.888C10.2667 23.9618 10.4407 24 10.6168 24C10.7929 24 10.9669 23.9618 11.1267 23.888L17.891 20.7663C18.0847 20.677 18.2515 20.5384 18.3748 20.3643C18.498 20.1902 18.5733 19.9868 18.5932 19.7745L20.2283 2.33082C20.2441 2.16216 20.2246 1.99205 20.1709 1.83137C20.1172 1.6707 20.0306 1.523 19.9165 1.39773C19.8025 1.27246 19.6635 1.17238 19.5086 1.10389C19.3537 1.03541 19.1861 1.00002 19.0167 1Z" fill="white" stroke="white"/>
<path d="M15.4847 5.25964H5.74854L6.35705 10.7363H14.8762L14.2677 17.4299L10.6166 19.2555L6.96556 17.4299L6.66131 14.3873" stroke="black" stroke-width="3" stroke-linecap="round" stroke-linejoin="round"/>
</mask>
<g mask="url(#mask0_136_123)">
<path d="M-3.98779 -2.04248H25.2209V27.1662H-3.98779V-2.04248Z" fill="#8AAD87"/>
</g>
</svg>
