<svg width="25" height="25" viewBox="0 0 25 25" fill="none" xmlns="http://www.w3.org/2000/svg">
<g clip-path="url(#clip0_136_133)">
<path d="M25 3.41194C25 1.4069 23.3984 -0.223267 21.4286 -0.223267H3.57143C1.60156 -0.223267 0 1.4069 0 3.41194V21.588C0 23.593 1.60156 25.2232 3.57143 25.2232H21.4286C23.3984 25.2232 25 23.593 25 21.588V3.41194ZM10.0949 23.2295C8.21429 23.2295 7.12612 22.2412 6.56808 21.0427L8.48214 19.8669C8.85045 20.5315 9.18527 21.0938 9.99442 21.0938C10.7645 21.0938 11.2556 20.7871 11.2556 19.5886V11.4605H13.6049V19.6227C13.6049 22.0992 12.1763 23.2295 10.0949 23.2295ZM14.8828 20.7871L16.7969 19.6624C17.2991 20.4974 17.9576 21.1165 19.1127 21.1165C20.0837 21.1165 20.7087 20.6224 20.7087 19.9351C20.7087 19.1172 20.0725 18.8275 18.9955 18.3447L18.4096 18.0891C16.7132 17.3564 15.5915 16.4305 15.5915 14.4823C15.5915 12.6874 16.9364 11.3242 19.029 11.3242C20.5246 11.3242 21.596 11.8524 22.3661 13.2383L20.5357 14.4312C20.1339 13.6984 19.6987 13.4087 19.0234 13.4087C18.3371 13.4087 17.9018 13.8518 17.9018 14.4312C17.9018 15.1468 18.3371 15.4365 19.3471 15.8852L19.933 16.1408C21.9308 17.0099 23.0525 17.9016 23.0525 19.901C23.0525 22.048 21.3895 23.2295 19.1629 23.2295C16.981 23.2295 15.5692 22.173 14.8828 20.7871Z" fill="#8AAD87"/>
</g>
<defs>
<clipPath id="clip0_136_133">
<rect width="25" height="25" fill="white"/>
</clipPath>
</defs>
</svg>
