<svg width="50" height="50" viewBox="0 0 50 50" fill="none" xmlns="http://www.w3.org/2000/svg">
<g clip-path="url(#clip0_27_71)">
<path d="M44.25 0.25C45.7087 0.25 47.1076 0.829462 48.1391 1.86091C49.1705 2.89236 49.75 4.29131 49.75 5.75V44.25C49.75 45.7087 49.1705 47.1076 48.1391 48.1391C47.1076 49.1705 45.7087 49.75 44.25 49.75H5.75C4.29131 49.75 2.89236 49.1705 1.86091 48.1391C0.829462 47.1076 0.25 45.7087 0.25 44.25V5.75C0.25 4.29131 0.829462 2.89236 1.86091 1.86091C2.89236 0.829462 4.29131 0.25 5.75 0.25H44.25ZM42.875 42.875V28.3C42.875 25.9223 41.9305 23.642 40.2492 21.9608C38.5679 20.2795 36.2877 19.335 33.91 19.335C31.5725 19.335 28.85 20.765 27.53 22.91V19.8575H19.8575V42.875H27.53V29.3175C27.53 27.2 29.235 25.4675 31.3525 25.4675C32.3736 25.4675 33.3528 25.8731 34.0749 26.5951C34.7969 27.3172 35.2025 28.2964 35.2025 29.3175V42.875H42.875ZM10.92 15.54C12.1453 15.54 13.3204 15.0533 14.1868 14.1868C15.0533 13.3204 15.54 12.1453 15.54 10.92C15.54 8.3625 13.4775 6.2725 10.92 6.2725C9.68741 6.2725 8.5053 6.76215 7.63372 7.63372C6.76215 8.5053 6.2725 9.68741 6.2725 10.92C6.2725 13.4775 8.3625 15.54 10.92 15.54ZM14.7425 42.875V19.8575H7.125V42.875H14.7425Z" fill="#8AAD87"/>
</g>
<defs>
<clipPath id="clip0_27_71">
<rect width="50" height="50" fill="white"/>
</clipPath>
</defs>
</svg>
