<svg width="25" height="27" viewBox="0 0 25 27" fill="none" xmlns="http://www.w3.org/2000/svg">
<path d="M8.50852 9.74478V19.8155C8.50844 20.2545 8.393 20.6857 8.17376 21.066C7.95452 21.4463 7.6392 21.7622 7.25941 21.9821C6.87962 22.202 6.44871 22.3182 6.0099 22.3189C5.57109 22.3196 5.1398 22.2049 4.75927 21.9863L2.79704 20.8596C2.24797 20.524 1.79433 20.0529 1.47965 19.4914C1.16496 18.93 0.999798 18.297 1 17.6533V9.34666C1.00001 8.70318 1.16528 8.0705 1.47996 7.50928C1.79463 6.94807 2.24816 6.47714 2.79704 6.14168L10.3056 1.55078C10.8949 1.19058 11.5722 1 12.2628 1C12.9534 1 13.6307 1.19058 14.22 1.55078L21.7285 6.14168C22.2776 6.47725 22.7312 6.94837 23.0459 7.50983C23.3606 8.07128 23.5258 8.70422 23.5256 9.34791V17.6533C23.5255 18.2968 23.3603 18.9295 23.0456 19.4907C22.7309 20.0519 22.2774 20.5229 21.7285 20.8583L14.22 25.4492C13.6307 25.8094 12.9534 26 12.2628 26C11.5722 26 10.8949 25.8094 10.3056 25.4492" stroke="#8AAD87" stroke-width="2" stroke-linecap="round" stroke-linejoin="round"/>
<path d="M18.5203 9.74451H14.1403C13.6425 9.74451 13.165 9.94236 12.813 10.2945C12.461 10.6467 12.2632 11.1244 12.2632 11.6224C12.2632 12.1205 12.461 12.5981 12.813 12.9503C13.165 13.3025 13.6425 13.5004 14.1403 13.5004H16.6432C17.141 13.5004 17.6185 13.6982 17.9705 14.0504C18.3225 14.4026 18.5203 14.8802 18.5203 15.3783C18.5203 15.8763 18.3225 16.354 17.9705 16.7062C17.6185 17.0583 17.141 17.2562 16.6432 17.2562H12.2632" stroke="#8AAD87" stroke-width="2" stroke-linecap="round" stroke-linejoin="round"/>
</svg>
