<svg width="25" height="23" viewBox="0 0 25 23" fill="none" xmlns="http://www.w3.org/2000/svg">
<g clip-path="url(#clip0_136_131)">
<path d="M12.5677 9.32049C13.7479 9.32049 14.7104 10.298 14.7104 11.5199C14.7104 12.6836 13.7479 13.6727 12.5677 13.6727C11.3875 13.6727 10.425 12.6836 10.425 11.5199C10.425 10.298 11.3875 9.32049 12.5677 9.32049ZM7.2625 20.8294C7.98438 21.2716 9.56563 20.5966 11.3875 18.8511C10.7917 18.1645 10.2073 17.4198 9.65729 16.6401C8.73401 16.5497 7.81606 16.4099 6.90729 16.2212C6.32292 18.7115 6.54063 20.4221 7.2625 20.8294ZM8.07604 14.1498L7.74375 13.5563C7.61771 13.8938 7.49167 14.2313 7.41146 14.5571C7.72083 14.6269 8.06458 14.6851 8.41979 14.7433L8.07604 14.1498ZM15.5698 13.2654L16.4979 11.5199L15.5698 9.77433C15.226 9.15757 14.8594 8.61064 14.5271 8.0637C13.9083 8.02879 13.2552 8.02879 12.5677 8.02879C11.8802 8.02879 11.2271 8.02879 10.6083 8.0637C10.276 8.61064 9.90938 9.15757 9.56563 9.77433L8.6375 11.5199L9.56563 13.2654C9.90938 13.8822 10.276 14.4291 10.6083 14.976C11.2271 15.0109 11.8802 15.0109 12.5677 15.0109C13.2552 15.0109 13.9083 15.0109 14.5271 14.976C14.8594 14.4291 15.226 13.8822 15.5698 13.2654ZM12.5677 5.4454C12.35 5.70141 12.1208 5.96906 11.8917 6.28326H13.2438C13.0146 5.96906 12.7854 5.70141 12.5677 5.4454ZM12.5677 17.5943C12.7854 17.3383 13.0146 17.0707 13.2438 16.7565H11.8917C12.1208 17.0707 12.35 17.3383 12.5677 17.5943ZM17.8615 2.21034C17.151 1.76814 15.5698 2.44308 13.7479 4.18861C14.3438 4.87519 14.9281 5.61995 15.4781 6.39962C16.4177 6.49272 17.3458 6.63236 18.2281 6.81855C18.8125 4.32826 18.5948 2.61763 17.8615 2.21034ZM17.0594 8.88992L17.3917 9.4834C17.5177 9.14593 17.6438 8.80846 17.724 8.48263C17.4146 8.41281 17.0708 8.35462 16.7156 8.29644L17.0594 8.88992ZM18.7208 0.685905C20.4052 1.6634 20.5885 4.23516 19.8781 7.23748C22.7885 8.11025 24.8854 9.55323 24.8854 11.5199C24.8854 13.4865 22.7885 14.9295 19.8781 15.8022C20.5885 18.8046 20.4052 21.3763 18.7208 22.3538C17.0479 23.3313 14.7677 22.2142 12.5677 20.0846C10.3677 22.2142 8.0875 23.3313 6.40313 22.3538C4.73021 21.3763 4.54688 18.8046 5.25729 15.8022C2.34688 14.9295 0.25 13.4865 0.25 11.5199C0.25 9.55323 2.34688 8.11025 5.25729 7.23748C4.54688 4.23516 4.73021 1.6634 6.40313 0.685905C8.0875 -0.291595 10.3677 0.825547 12.5677 2.9551C14.7677 0.825547 17.0479 -0.291595 18.7208 0.685905ZM18.3885 11.5199C18.7781 12.3926 19.1219 13.2654 19.4083 14.1498C21.8146 13.4167 23.1667 12.3694 23.1667 11.5199C23.1667 10.6704 21.8146 9.62305 19.4083 8.88992C19.1219 9.77433 18.7781 10.6471 18.3885 11.5199ZM6.74688 11.5199C6.35729 10.6471 6.01354 9.77433 5.72708 8.88992C3.32083 9.62305 1.96875 10.6704 1.96875 11.5199C1.96875 12.3694 3.32083 13.4167 5.72708 14.1498C6.01354 13.2654 6.35729 12.3926 6.74688 11.5199ZM17.0594 14.1498L16.7156 14.7433C17.0708 14.6851 17.4146 14.6269 17.724 14.5571C17.6438 14.2313 17.5177 13.8938 17.3917 13.5563L17.0594 14.1498ZM13.7479 18.8511C15.5698 20.5966 17.151 21.2716 17.8615 20.8294C18.5948 20.4221 18.8125 18.7115 18.2281 16.2212C17.3458 16.4074 16.4177 16.547 15.4781 16.6401C14.9281 17.4198 14.3438 18.1645 13.7479 18.8511ZM8.07604 8.88992L8.41979 8.29644C8.06458 8.35462 7.72083 8.41281 7.41146 8.48263C7.49167 8.80846 7.61771 9.14593 7.74375 9.4834L8.07604 8.88992ZM11.3875 4.18861C9.56563 2.44308 7.98438 1.76814 7.2625 2.21034C6.54063 2.61763 6.32292 4.32826 6.90729 6.81855C7.81606 6.62986 8.73401 6.49002 9.65729 6.39962C10.2073 5.61995 10.7917 4.87519 11.3875 4.18861Z" fill="#8AAD87"/>
</g>
<defs>
<clipPath id="clip0_136_131">
<rect width="25" height="23" fill="white"/>
</clipPath>
</defs>
</svg>
