<svg width="25" height="16" viewBox="0 0 25 16" fill="none" xmlns="http://www.w3.org/2000/svg">
<g clip-path="url(#clip0_136_139)">
<path fill-rule="evenodd" clip-rule="evenodd" d="M6.25 5.50576C7.08333 2.17933 9.16666 0.516113 12.5 0.516113C17.5 0.516113 18.125 4.25804 20.625 4.8819C22.2917 5.29781 23.75 4.67395 25 3.01032C24.1667 6.33676 22.0833 7.99997 18.75 7.99997C13.75 7.99997 13.125 4.25804 10.625 3.63418C8.95833 3.2191 7.5 3.84336 6.25 5.50699M0 12.9908C0.833333 9.6636 2.91667 7.99997 6.25 7.99997C11.25 7.99997 11.875 11.7419 14.375 12.3658C16.0417 12.7808 17.5 12.157 18.75 10.4942C17.9167 13.8206 15.8333 15.4838 12.5 15.4838C7.5 15.4838 6.875 11.7419 4.375 11.118C2.70833 10.7021 1.25 11.3272 0 12.9908Z" fill="#8AAD87"/>
</g>
<defs>
<clipPath id="clip0_136_139">
<rect width="25" height="16" fill="white"/>
</clipPath>
</defs>
</svg>
